<svg width="408" height="408" viewBox="0 0 408 408" xmlns="http://www.w3.org/2000/svg"><title>cljs-ring</title><g fill="none" fill-rule="evenodd"><path d="M188.4 30.7l4.6-.4V.2l-5.4.4c-50.9 4.1-98.2 27-133.1 64.7C19.3 103.2 0 152.5 0 204c0 51.5 19.3 100.8 54.5 138.6 34.9 37.7 82.2 60.6 133.1 64.7l5.4.4v-30.1l-4.6-.4c-43.1-3.8-83-23.6-112.5-55.6-29.6-32.2-46-74-46-117.7s16.3-85.5 46-117.7c29.5-31.9 69.5-51.7 112.5-55.5z" fill="#96CA4B"/><path d="M353.5 65.4C318.6 27.7 271.3 4.8 220.4.7L215 .2v30.1l4.6.4c43.1 3.8 83 23.6 112.5 55.6 29.6 32.2 46 74 46 117.7s-16.3 85.5-46 117.7c-29.5 32-69.4 51.8-112.5 55.6l-4.6.4v30.1l5.4-.4c50.9-4.1 98.2-27 133.1-64.7C388.7 304.8 408 255.5 408 204c0-51.5-19.3-100.8-54.5-138.6z" fill="#5F7FBF"/><path d="M68.13 193.234c1.772 1.375 2.84 3.743 3.198 7.102h-4.1c-.25-1.547-.822-2.832-1.712-3.856-.89-1.023-2.32-1.535-4.29-1.535-2.687 0-4.61 1.313-5.765 3.938-.75 1.703-1.124 3.804-1.124 6.304 0 2.516.53 4.633 1.594 6.352 1.062 1.718 2.734 2.577 5.015 2.577 1.75 0 3.137-.535 4.16-1.605 1.024-1.07 1.73-2.535 2.122-4.395h4.1c-.468 3.328-1.64 5.762-3.514 7.3-1.876 1.54-4.274 2.31-7.196 2.31-3.28 0-5.898-1.2-7.85-3.598-1.955-2.4-2.93-5.396-2.93-8.99 0-4.406 1.07-7.835 3.21-10.288 2.14-2.454 4.867-3.68 8.18-3.68 2.828 0 5.128.687 6.902 2.062zm7.534-10.664h4.22V217h-4.22v-34.43zm26.262 28.535c1.04-2.117 1.558-4.472 1.558-7.066 0-2.345-.375-4.25-1.125-5.72-1.188-2.312-3.235-3.468-6.14-3.468-2.58 0-4.454.984-5.626 2.953-1.172 1.968-1.758 4.343-1.758 7.125 0 2.672.586 4.898 1.758 6.68 1.172 1.78 3.03 2.67 5.578 2.67 2.797 0 4.715-1.057 5.754-3.175zm2.613-16.7c2.233 2.158 3.35 5.33 3.35 9.517 0 4.047-.984 7.39-2.953 10.03-1.968 2.642-5.023 3.962-9.164 3.962-3.453 0-6.195-1.168-8.226-3.504-2.03-2.336-3.047-5.472-3.047-9.41 0-4.22 1.07-7.578 3.21-10.078 2.142-2.5 5.017-3.75 8.626-3.75 3.234 0 5.97 1.078 8.203 3.234zm12.585-6.96h-4.22v-4.875h4.22v4.875zm-8.203 35.907c1.89-.063 3.027-.23 3.41-.504s.574-1.13.574-2.567v-28.264h4.22v28.71c0 1.83-.298 3.196-.892 4.102-.984 1.53-2.85 2.297-5.6 2.297-.204 0-.42-.008-.646-.023a43.188 43.188 0 0 1-1.066-.094v-3.656zm18.867-31.454v16.665c0 1.28.202 2.328.608 3.14.75 1.5 2.15 2.25 4.196 2.25 2.937 0 4.937-1.312 6-3.937.578-1.407.867-3.336.867-5.79V191.9h4.22V217h-3.985l.047-3.703a8.51 8.51 0 0 1-2.04 2.414c-1.608 1.313-3.56 1.97-5.858 1.97-3.578 0-6.016-1.196-7.313-3.586-.702-1.282-1.053-2.992-1.053-5.133V191.9h4.312zm22.593 0h4.008v4.336c.33-.843 1.133-1.87 2.415-3.082 1.28-1.21 2.757-1.816 4.43-1.816.077 0 .21.008.398.023.187.015.508.046.96.093v4.453a6.3 6.3 0 0 0-.69-.094 9.404 9.404 0 0 0-.692-.023c-2.124 0-3.757.683-4.898 2.05-1.14 1.367-1.71 2.94-1.71 4.722V217h-4.22v-25.102zm31.5.692c1.672.836 2.945 1.918 3.82 3.246.844 1.266 1.406 2.742 1.688 4.43.25 1.156.376 3 .376 5.53h-18.4c.08 2.548.68 4.59 1.806 6.13 1.125 1.54 2.867 2.308 5.226 2.308 2.204 0 3.96-.726 5.274-2.18a7.348 7.348 0 0 0 1.594-2.93h4.148c-.11.923-.473 1.95-1.09 3.083-.617 1.133-1.308 2.06-2.074 2.777-1.28 1.25-2.867 2.094-4.758 2.532-1.015.25-2.164.375-3.445.375-3.125 0-5.774-1.136-7.945-3.41-2.172-2.273-3.258-5.457-3.258-9.55 0-4.032 1.093-7.305 3.28-9.82 2.19-2.516 5.048-3.774 8.58-3.774 1.78 0 3.507.418 5.18 1.254zm1.547 9.855c-.172-1.828-.57-3.29-1.196-4.382-1.156-2.032-3.086-3.047-5.79-3.047-1.936 0-3.56.7-4.874 2.097-1.312 1.4-2.007 3.176-2.086 5.332h13.946zm12.023 6.68c.125 1.406.477 2.484 1.055 3.234 1.062 1.36 2.906 2.038 5.53 2.038 1.564 0 2.94-.34 4.126-1.02 1.188-.68 1.78-1.73 1.78-3.15 0-1.08-.475-1.9-1.428-2.462-.61-.344-1.813-.743-3.61-1.196l-3.35-.843c-2.142-.532-3.72-1.125-4.736-1.782-1.812-1.14-2.718-2.718-2.718-4.734 0-2.374.855-4.296 2.566-5.765 1.71-1.468 4.012-2.203 6.902-2.203 3.782 0 6.508 1.11 8.18 3.328 1.047 1.407 1.555 2.922 1.523 4.547h-3.984a4.88 4.88 0 0 0-1.01-2.6c-.968-1.11-2.647-1.665-5.038-1.665-1.594 0-2.8.304-3.62.914-.82.61-1.23 1.414-1.23 2.414 0 1.093.538 1.968 1.616 2.625.625.39 1.547.734 2.765 1.03l2.79.68c3.03.735 5.062 1.446 6.093 2.133 1.64 1.08 2.46 2.774 2.46 5.086 0 2.235-.846 4.164-2.542 5.79-1.695 1.624-4.277 2.437-7.746 2.437-3.734 0-6.38-.847-7.933-2.542-1.555-1.695-2.387-3.793-2.497-6.293h4.055zm38.074-15.89c1.774 1.374 2.84 3.742 3.2 7.1h-4.102c-.25-1.546-.82-2.83-1.71-3.855-.892-1.023-2.32-1.535-4.29-1.535-2.688 0-4.61 1.313-5.766 3.938-.75 1.703-1.126 3.804-1.126 6.304 0 2.516.532 4.633 1.594 6.352 1.063 1.718 2.734 2.577 5.016 2.577 1.75 0 3.136-.535 4.16-1.605 1.023-1.07 1.73-2.535 2.12-4.395h4.103c-.47 3.328-1.64 5.762-3.516 7.3-1.874 1.54-4.272 2.31-7.194 2.31-3.282 0-5.9-1.2-7.852-3.598-1.953-2.4-2.93-5.396-2.93-8.99 0-4.406 1.07-7.835 3.21-10.288 2.142-2.454 4.868-3.68 8.18-3.68 2.83 0 5.13.687 6.903 2.062zm7.536-1.337h4.007v4.336c.328-.843 1.133-1.87 2.414-3.082 1.282-1.21 2.758-1.816 4.43-1.816.078 0 .21.008.4.023.186.015.506.046.96.093v4.453a6.3 6.3 0 0 0-.692-.094 9.404 9.404 0 0 0-.69-.023c-2.126 0-3.76.683-4.9 2.05-1.14 1.367-1.71 2.94-1.71 4.722V217h-4.22v-25.102zm15.867.118h4.29V217h-4.29v-24.984zm0-9.446h4.29v4.782h-4.29v-4.782zm26.168 29.12c1.304-1.647 1.957-4.112 1.957-7.393 0-2-.29-3.72-.868-5.156-1.093-2.765-3.093-4.148-6-4.148-2.92 0-4.92 1.46-6 4.383-.578 1.563-.867 3.547-.867 5.953 0 1.938.29 3.586.868 4.945 1.093 2.594 3.093 3.89 6 3.89 1.968 0 3.605-.823 4.91-2.472zm-15.832-19.674h4.1v3.328c.845-1.14 1.767-2.024 2.767-2.65 1.422-.936 3.094-1.405 5.015-1.405 2.844 0 5.258 1.09 7.243 3.27 1.985 2.178 2.977 5.292 2.977 9.338 0 5.47-1.43 9.375-4.29 11.72-1.81 1.484-3.92 2.226-6.327 2.226-1.89 0-3.477-.414-4.758-1.242-.75-.47-1.586-1.274-2.508-2.415v12.82h-4.218v-34.99zm27.867-7.125h4.265v7.008h4.008v3.446h-4.008v16.383c0 .875.297 1.46.89 1.757.33.172.876.258 1.642.258.203 0 .422-.004.656-.012.234-.007.508-.027.82-.058V217c-.484.14-.988.242-1.51.305-.525.062-1.09.093-1.7.093-1.97 0-3.305-.503-4.01-1.51-.702-1.01-1.053-2.318-1.053-3.927v-16.616h-3.4v-3.446h3.4v-7.007zm13.5 27h4.898V217h-4.897v-5.11zm12.445-19.992h4.008v4.336c.328-.843 1.133-1.87 2.414-3.082 1.28-1.21 2.758-1.816 4.43-1.816.078 0 .21.008.398.023.188.015.508.046.96.093v4.453a6.3 6.3 0 0 0-.69-.094 9.404 9.404 0 0 0-.692-.023c-2.125 0-3.758.683-4.898 2.05-1.14 1.367-1.71 2.94-1.71 4.722V217h-4.22v-25.102zm20.086 0v16.665c0 1.28.203 2.328.61 3.14.75 1.5 2.148 2.25 4.195 2.25 2.936 0 4.936-1.312 6-3.937.577-1.407.866-3.336.866-5.79V191.9h4.22V217h-3.986l.047-3.703a8.51 8.51 0 0 1-2.04 2.414c-1.608 1.313-3.56 1.97-5.858 1.97-3.58 0-6.017-1.196-7.314-3.586-.703-1.282-1.054-2.992-1.054-5.133V191.9h4.312z" fill="#626262"/></g></svg>